{
  "accessors": [
    {
      "bufferView": 2,
      "componentType": 5126,
      "count": 214,
      "max": [
        1.0,
        0.7405288815498352,
        0.29611873626708984
      ],
      "min": [
        -1.0,
        -1.0,
        0.0
      ],
      "type": "VEC3"
    },
    {
      "bufferView": 2,
      "byteOffset": 2568,
      "componentType": 5126,
      "count": 214,
      "max": [
        1.0,
        1.0,
        1.0
      ],
      "min": [
        -1.0,
        -1.0,
        -1.0
      ],
      "type": "VEC3"
    },
    {
      "bufferView": 1,
      "componentType": 5126,
      "count": 214,
      "max": [
        0.0,
        0.0
      ],
      "min": [
        0.0,
        0.0
      ],
      "type": "VEC2"
    },
    {
      "bufferView": 0,
      "componentType": 5125,
      "count": 576,
      "type": "SCALAR"
    },
    {
      "bufferView": 2,
      "byteOffset": 5136,
      "componentType": 5126,
      "count": 172,
      "max": [
        1.0,
        0.7405288815498352,
        0.17940407991409302
      ],
      "min": [
        -1.0,
        -1.0,
        0.0
      ],
      "type": "VEC3"
    },
    {
      "bufferView": 2,
      "byteOffset": 7200,
      "componentType": 5126,
      "count": 172,
      "max": [
        1.0,
        0.5954683423042297,
        0.8393072485923767
      ],
      "min": [
        -1.0,
        -1.0,
        -1.0
      ],
      "type": "VEC3"
    },
    {
      "bufferView": 1,
      "byteOffset": 1712,
      "componentType": 5126,
      "count": 172,
      "max": [
        0.0,
        0.0
      ],
      "min": [
        0.0,
        0.0
      ],
      "type": "VEC2"
    },
    {
      "bufferView": 0,
      "byteOffset": 2304,
      "componentType": 5125,
      "count": 786,
      "type": "SCALAR"
    },
    {
      "bufferView": 2,
      "byteOffset": 9264,
      "componentType": 5126,
      "count": 1089,
      "max": [
        1.1360207796096802,
        0.3962157368659973,
        0.2127065807580948
      ],
      "min": [
        -1.1486679315567017,
        -1.1169511079788208,
        0.014123303815722466
      ],
      "type": "VEC3"
    },
    {
      "bufferView": 2,
      "byteOffset": 22332,
      "componentType": 5126,
      "count": 1089,
      "max": [
        0.9639061689376831,
        0.29725584387779236,
        1.0
      ],
      "min": [
        -0.992625892162323,
        -0.9837789535522461,
        -0.7064322233200073
      ],
      "type": "VEC3"
    },
    {
      "bufferView": 1,
      "byteOffset": 3088,
      "componentType": 5126,
      "count": 1089,
      "max": [
        1.2557172775268555,
        1.2557172775268555
      ],
      "min": [
        -0.25571733713150024,
        -0.25571733713150024
      ],
      "type": "VEC2"
    },
    {
      "bufferView": 0,
      "byteOffset": 5448,
      "componentType": 5125,
      "count": 6144,
      "type": "SCALAR"
    },
    {
      "bufferView": 2,
      "byteOffset": 35400,
      "componentType": 5126,
      "count": 8450,
      "max": [
        1.2006937265396118,
        0.17801950871944427,
        0.23174592852592468
      ],
      "min": [
        -1.2062900066375732,
        -0.15782757103443146,
        -0.009040594100952148
      ],
      "type": "VEC3"
    },
    {
      "bufferView": 2,
      "byteOffset": 136800,
      "componentType": 5126,
      "count": 8450,
      "max": [
        0.9884278178215027,
        0.9976669549942017,
        0.9999998807907104
      ],
      "min": [
        -0.9731900095939636,
        -0.9991495609283447,
        -0.9999998807907104
      ],
      "type": "VEC3"
    },
    {
      "bufferView": 1,
      "byteOffset": 11800,
      "componentType": 5126,
      "count": 8450,
      "max": [
        1.0,
        1.0
      ],
      "min": [
        0.0,
        0.0
      ],
      "type": "VEC2"
    },
    {
      "bufferView": 0,
      "byteOffset": 30024,
      "componentType": 5125,
      "count": 50688,
      "type": "SCALAR"
    },
    {
      "bufferView": 2,
      "byteOffset": 238200,
      "componentType": 5126,
      "count": 583,
      "max": [
        -0.00035187602043151855,
        0.7174435257911682,
        0.2707349359989166
      ],
      "min": [
        -0.5494916439056396,
        0.39065104722976685,
        0.17120996117591858
      ],
      "type": "VEC3"
    },
    {
      "bufferView": 2,
      "byteOffset": 245196,
      "componentType": 5126,
      "count": 583,
      "max": [
        0.9882286787033081,
        0.9979971051216125,
        0.9999947547912598
      ],
      "min": [
        -0.9994282722473145,
        -0.9989259839057922,
        -0.9999996423721313
      ],
      "type": "VEC3"
    },
    {
      "bufferView": 1,
      "byteOffset": 79400,
      "componentType": 5126,
      "count": 583,
      "max": [
        0.0,
        0.0
      ],
      "min": [
        0.0,
        0.0
      ],
      "type": "VEC2"
    },
    {
      "bufferView": 0,
      "byteOffset": 232776,
      "componentType": 5125,
      "count": 3519,
      "type": "SCALAR"
    },
    {
      "bufferView": 2,
      "byteOffset": 252192,
      "componentType": 5126,
      "count": 583,
      "max": [
        0.5942504405975342,
        0.7174435257911682,
        0.2707349359989166
      ],
      "min": [
        0.045110613107681274,
        0.39065104722976685,
        0.17120996117591858
      ],
      "type": "VEC3"
    },
    {
      "bufferView": 2,
      "byteOffset": 259188,
      "componentType": 5126,
      "count": 583,
      "max": [
        0.9882286787033081,
        0.9979990124702454,
        0.9999947547912598
      ],
      "min": [
        -0.9994282722473145,
        -0.9989259839057922,
        -0.9999996423721313
      ],
      "type": "VEC3"
    },
    {
      "bufferView": 1,
      "byteOffset": 84064,
      "componentType": 5126,
      "count": 583,
      "max": [
        0.0,
        0.0
      ],
      "min": [
        0.0,
        0.0
      ],
      "type": "VEC2"
    },
    {
      "bufferView": 0,
      "byteOffset": 246852,
      "componentType": 5125,
      "count": 3522,
      "type": "SCALAR"
    },
    {
      "bufferView": 2,
      "byteOffset": 266184,
      "componentType": 5126,
      "count": 583,
      "max": [
        0.30658888816833496,
        0.5288586020469666,
        0.34620505571365356
      ],
      "min": [
        -0.24255090951919556,
        0.213823139667511,
        0.18763020634651184
      ],
      "type": "VEC3"
    },
    {
      "bufferView": 2,
      "byteOffset": 273180,
      "componentType": 5126,
      "count": 583,
      "max": [
        0.9882325530052185,
        0.9995752573013306,
        0.9999603033065796
      ],
      "min": [
        -0.9994288682937622,
        -0.9978147149085999,
        -0.9962267279624939
      ],
      "type": "VEC3"
    },
    {
      "bufferView": 1,
      "byteOffset": 88728,
      "componentType": 5126,
      "count": 583,
      "max": [
        0.0,
        0.0
      ],
      "min": [
        0.0,
        0.0
      ],
      "type": "VEC2"
    },
    {
      "bufferView": 0,
      "byteOffset": 260940,
      "componentType": 5125,
      "count": 3522,
      "type": "SCALAR"
    }
  ],
  "asset": {
    "extras": {
      "author": "Mckai (https://sketchfab.com/Mckai)",
      "license": "CC-BY-4.0 (http://creativecommons.org/licenses/by/4.0/)",
      "source": "https://sketchfab.com/3d-models/basic-round-bed-e568e367064748dca14d420e4085628f",
      "title": "Basic Round Bed"
    },
    "generator": "Sketchfab-12.68.0",
    "version": "2.0"
  },
  "bufferViews": [
    {
      "buffer": 0,
      "byteLength": 275028,
      "name": "floatBufferViews",
      "target": 34963
    },
    {
      "buffer": 0,
      "byteLength": 93392,
      "byteOffset": 275028,
      "byteStride": 8,
      "name": "floatBufferViews",
      "target": 34962
    },
    {
      "buffer": 0,
      "byteLength": 280176,
      "byteOffset": 368420,
      "byteStride": 12,
      "name": "floatBufferViews",
      "target": 34962
    }
  ],
  "buffers": [
    {
      "byteLength": 648596,
      "uri": "scene.bin"
    }
  ],
  "images": [
    {
      "uri": "textures/Blanket_baseColor.png"
    }
  ],
  "materials": [
    {
      "doubleSided": true,
      "name": "Wood",
      "pbrMetallicRoughness": {
        "baseColorFactor": [
          0.0,
          0.0,
          0.0,
          1.0
        ],
        "metallicFactor": 0.0
      }
    },
    {
      "doubleSided": true,
      "name": "Matress",
      "pbrMetallicRoughness": {
        "metallicFactor": 0.0,
        "roughnessFactor": 0.7763932022500211
      }
    },
    {
      "doubleSided": true,
      "name": "Blanket",
      "pbrMetallicRoughness": {
        "baseColorTexture": {
          "index": 0
        },
        "metallicFactor": 0.0
      }
    },
    {
      "doubleSided": true,
      "name": "Sheet",
      "pbrMetallicRoughness": {
        "baseColorFactor": [
          0.8,
          0.8,
          0.8,
          1.0
        ],
        "metallicFactor": 0.0
      }
    },
    {
      "doubleSided": true,
      "name": "Pillow.001",
      "pbrMetallicRoughness": {
        "baseColorFactor": [
          0.8,
          0.8,
          0.8,
          1.0
        ],
        "metallicFactor": 0.0,
        "roughnessFactor": 0.8211145618000169
      }
    },
    {
      "doubleSided": true,
      "name": "Pillow.002",
      "pbrMetallicRoughness": {
        "baseColorFactor": [
          0.8,
          0.8,
          0.8,
          1.0
        ],
        "metallicFactor": 0.0,
        "roughnessFactor": 0.8211145618000169
      }
    },
    {
      "doubleSided": true,
      "name": "Pillow.003",
      "pbrMetallicRoughness": {
        "baseColorFactor": [
          0.8,
          0.8,
          0.8,
          1.0
        ],
        "metallicFactor": 0.0,
        "roughnessFactor": 0.8211145618000169
      }
    }
  ],
  "meshes": [
    {
      "name": "Bed_Wood_0",
      "primitives": [
        {
          "attributes": {
            "NORMAL": 1,
            "POSITION": 0,
            "TEXCOORD_0": 2
          },
          "indices": 3,
          "material": 0,
          "mode": 4
        }
      ]
    },
    {
      "name": "Bed_Matress_0",
      "primitives": [
        {
          "attributes": {
            "NORMAL": 5,
            "POSITION": 4,
            "TEXCOORD_0": 6
          },
          "indices": 7,
          "material": 1,
          "mode": 4
        }
      ]
    },
    {
      "name": "Bed_Blanket_0",
      "primitives": [
        {
          "attributes": {
            "NORMAL": 9,
            "POSITION": 8,
            "TEXCOORD_0": 10
          },
          "indices": 11,
          "material": 2,
          "mode": 4
        }
      ]
    },
    {
      "name": "Bed_Sheet_0",
      "primitives": [
        {
          "attributes": {
            "NORMAL": 13,
            "POSITION": 12,
            "TEXCOORD_0": 14
          },
          "indices": 15,
          "material": 3,
          "mode": 4
        }
      ]
    },
    {
      "name": "Bed_Pillow.001_0",
      "primitives": [
        {
          "attributes": {
            "NORMAL": 17,
            "POSITION": 16,
            "TEXCOORD_0": 18
          },
          "indices": 19,
          "material": 4,
          "mode": 4
        }
      ]
    },
    {
      "name": "Bed_Pillow.002_0",
      "primitives": [
        {
          "attributes": {
            "NORMAL": 21,
            "POSITION": 20,
            "TEXCOORD_0": 22
          },
          "indices": 23,
          "material": 5,
          "mode": 4
        }
      ]
    },
    {
      "name": "Bed_Pillow.003_0",
      "primitives": [
        {
          "attributes": {
            "NORMAL": 25,
            "POSITION": 24,
            "TEXCOORD_0": 26
          },
          "indices": 27,
          "material": 6,
          "mode": 4
        }
      ]
    }
  ],
  "nodes": [
    {
      "children": [
        1
      ],
      "matrix": [
        0.01977560855448246,
        0.0,
        0.0,
        0.0,
        0.0,
        4.391067188632127e-18,
        -0.01977560855448246,
        0.0,
        0.0,
        0.01977560855448246,
        4.391067188632127e-18,
        0.0,
        0.0,
        0.0,
        0.0,
        1.0
      ],
      "name": "Sketchfab_model"
    },
    {
      "children": [
        2
      ],
      "matrix": [
        1.0,
        0.0,
        0.0,
        0.0,
        0.0,
        0.0,
        1.0,
        0.0,
        0.0,
        -1.0,
        0.0,
        0.0,
        0.0,
        0.0,
        0.0,
        1.0
      ],
      "name": "Bed.fbx"
    },
    {
      "children": [
        3
      ],
      "name": "RootNode"
    },
    {
      "children": [
        4,
        5,
        6,
        7,
        8,
        9,
        10
      ],
      "matrix": [
        100.0,
        0.0,
        0.0,
        0.0,
        0.0,
        -1.629206793918314e-05,
        -99.99999999999868,
        0.0,
        0.0,
        99.99999999999868,
        -1.629206793918314e-05,
        0.0,
        0.0,
        0.0,
        0.0,
        1.0
      ],
      "name": "Bed"
    },
    {
      "mesh": 0,
      "name": "Bed_Wood_0"
    },
    {
      "mesh": 1,
      "name": "Bed_Matress_0"
    },
    {
      "mesh": 2,
      "name": "Bed_Blanket_0"
    },
    {
      "mesh": 3,
      "name": "Bed_Sheet_0"
    },
    {
      "mesh": 4,
      "name": "Bed_Pillow.001_0"
    },
    {
      "mesh": 5,
      "name": "Bed_Pillow.002_0"
    },
    {
      "mesh": 6,
      "name": "Bed_Pillow.003_0"
    }
  ],
  "samplers": [
    {
      "magFilter": 9729,
      "minFilter": 9987,
      "wrapS": 10497,
      "wrapT": 10497
    }
  ],
  "scene": 0,
  "scenes": [
    {
      "name": "Sketchfab_Scene",
      "nodes": [
        0
      ]
    }
  ],
  "textures": [
    {
      "sampler": 0,
      "source": 0
    }
  ]
}
